<svg preserveAspectRatio="none" width="100%" height="100%" overflow="visible" style="display: block;" viewBox="0 0 96 28.5167" fill="none" xmlns="http://www.w3.org/2000/svg">
<g id="Group 1949">
<g id="SPC (Stroke)">
<path id="Stroke" fill-rule="evenodd" clip-rule="evenodd" d="M96 20.9164V28.5167H66.5376V14.7034C66.5376 6.69332 72.2902 0 79.5721 0H96V12.0506H88.344V7.60033H79.5721C76.7569 7.60033 74.1379 10.5983 74.1379 14.7034V20.9164H96ZM73.2304 21.8239V14.7034C73.2304 10.3087 76.0675 6.69286 79.5721 6.69286H89.2515V11.1432H95.0925V0.907475H79.5721C72.8967 0.907475 67.4451 7.08226 67.4451 14.7034V27.6092H95.0925V21.8239H73.2304Z" fill="url(#paint0_linear_0_63)"/>
<path id="Vector 1" d="M95.3253 27.8808V21.7726L73.4522 21.7338V19.8335C73.5104 18.0107 73.6074 13.163 73.8982 11.6893C74.1309 10.5103 74.8872 9.55624 75.2362 9.22659C75.9537 7.32627 78.4163 6.91906 78.7848 6.91906H89.1784V11.6311H95.3253V0.461854C93.5026 0.513563 89.0581 0.585956 85.8625 0.461854C81.8679 0.306726 76.6324 0.869065 74.5188 1.64471C72.4051 2.42035 69.2056 6.55064 68.0616 8.81939C67.1463 10.6344 67.0338 22.2832 67.092 27.8808H95.3253Z" fill="url(#paint1_linear_0_63)"/>
<path id="Stroke_2" fill-rule="evenodd" clip-rule="evenodd" d="M41.6234 28.5167H37.8232H34.023V17.6135H33.9674V10.0132H54.7899C55.2171 10.0132 55.7182 9.6128 55.7182 8.80675C55.7182 8.00069 55.2171 7.60033 54.7899 7.60033H33.9674V0H54.7899C59.544 0 63.3742 3.992 63.3742 8.80675C63.3742 13.6813 59.5399 17.6135 54.7899 17.6135H41.6234V28.5167ZM62.4667 8.80675C62.4667 4.46771 59.0177 0.907475 54.7899 0.907475H34.8749V6.69286H54.7899C55.8469 6.69286 56.6257 7.63855 56.6257 8.80675C56.6257 9.97495 55.8469 10.9206 54.7899 10.9206H34.8749V16.706H34.9305V27.6092H40.7159V16.706H54.7899C59.0177 16.706 62.4667 13.2014 62.4667 8.80675Z" fill="url(#paint2_linear_0_63)"/>
<path id="Stroke_3" fill-rule="evenodd" clip-rule="evenodd" d="M29.4068 0V7.60033H8.52861C8.14056 7.60033 7.60033 8.01977 7.60033 8.80675C7.60033 9.59373 8.14056 10.0132 8.52861 10.0132H21.4345C25.8807 10.0132 29.518 13.6413 29.518 18.0411V18.9486H21.8621V18.0411C21.8621 17.8191 21.6565 17.6135 21.4345 17.6135H8.52861C3.83005 17.6135 0 13.677 0 8.80675C0 3.99635 3.82595 0 8.52861 0H29.4068ZM29.518 28.5167H2.89269V20.9164H29.518V28.5167ZM28.5516 17.1336C28.0972 13.6583 25.0727 10.9206 21.4345 10.9206H8.52861C7.52729 10.9206 6.69286 9.97495 6.69286 8.80675C6.69286 7.63855 7.52729 6.69286 8.52861 6.69286H28.4993V0.907475H8.52861C4.35645 0.907475 0.907475 4.46771 0.907475 8.80675C0.907475 13.2014 4.35645 16.706 8.52861 16.706H21.4345C22.1576 16.706 22.7696 17.3179 22.7696 18.0411H28.6106C28.6106 17.7341 28.5905 17.4311 28.5516 17.1336ZM28.6106 27.6092V21.8239H3.80017V27.6092H28.6106Z" fill="url(#paint3_linear_0_63)"/>
</g>
<path id="Vector 2" d="M40.8752 16.8473V27.6869H34.7864V10.8749L55.3021 10.6228C56.0649 10.3578 57.2723 9.31972 56.0002 7.28754C55.7934 7.00314 54.9764 6.51966 53.363 6.86094H34.7864V0.869099H54.9143C57.0538 0.907881 61.5383 2.28077 62.3605 7.46205C62.4874 8.26182 62.5902 8.86504 62.6721 9.30558C62.7487 8.5986 62.7308 7.96364 62.6513 7.46205C62.941 9.24942 63.1207 11.719 62.6721 9.30558C62.3874 11.933 60.7974 15.555 56.2135 17.0218L40.8752 16.8473Z" fill="url(#paint4_linear_0_63)"/>
<path id="Vector 3" d="M28.9302 27.9195V21.6755H3.334V27.9195H28.9302Z" fill="url(#paint5_linear_0_63)"/>
<path id="Vector 4" d="M22.5912 18.1464H28.7575C29.1453 13.1513 24.6789 11.2174 22.3973 10.8748H8.80417C8.24829 10.933 7.09776 10.5723 6.94263 8.66422C6.7875 6.75613 8.48099 6.73158 9.34712 6.95782H28.7575V0.57816C25.2348 0.306686 16.421 -0.0733781 9.34712 0.57816C2.27327 1.2297 0.634063 6.24034 0.698689 8.66422C-0.294131 17.8168 12.8815 18.2822 19.8558 17.1963C21.7174 16.7464 22.6299 17.5259 22.5912 18.1464Z" fill="url(#paint6_linear_0_63)"/>
</g>
<defs>
<linearGradient id="paint0_linear_0_63" x1="66.5376" y1="14.2584" x2="96" y2="14.2584" gradientUnits="userSpaceOnUse">
<stop stop-color="white"/>
<stop offset="1" stop-color="#999999"/>
</linearGradient>
<linearGradient id="paint1_linear_0_63" x1="67.0793" y1="14.1584" x2="95.3253" y2="14.1584" gradientUnits="userSpaceOnUse">
<stop stop-color="white"/>
<stop offset="1" stop-color="#999999"/>
</linearGradient>
<linearGradient id="paint2_linear_0_63" x1="33.9674" y1="14.2584" x2="63.3742" y2="14.2584" gradientUnits="userSpaceOnUse">
<stop stop-color="white"/>
<stop offset="1" stop-color="#999999"/>
</linearGradient>
<linearGradient id="paint3_linear_0_63" x1="0" y1="14.2584" x2="29.518" y2="14.2584" gradientUnits="userSpaceOnUse">
<stop stop-color="white"/>
<stop offset="1" stop-color="#999999"/>
</linearGradient>
<linearGradient id="paint4_linear_0_63" x1="34.7864" y1="14.278" x2="62.9435" y2="14.278" gradientUnits="userSpaceOnUse">
<stop stop-color="white"/>
<stop offset="1" stop-color="#999999"/>
</linearGradient>
<linearGradient id="paint5_linear_0_63" x1="3.334" y1="24.7975" x2="28.9302" y2="24.7975" gradientUnits="userSpaceOnUse">
<stop stop-color="white"/>
<stop offset="1" stop-color="#999999"/>
</linearGradient>
<linearGradient id="paint6_linear_0_63" x1="0.645601" y1="9.18241" x2="28.7812" y2="9.18241" gradientUnits="userSpaceOnUse">
<stop stop-color="white"/>
<stop offset="1" stop-color="#999999"/>
</linearGradient>
</defs>
</svg>
